<?xml version="1.0" standalone="no"?>
<!DOCTYPE svg PUBLIC "-//W3C//DTD SVG 20010904//EN"
 "http://www.w3.org/TR/2001/REC-SVG-20010904/DTD/svg10.dtd">
<svg version="1.0" xmlns="http://www.w3.org/2000/svg"
 width="700.000000pt" height="700.000000pt" viewBox="0 0 700.000000 700.000000"
 preserveAspectRatio="xMidYMid meet">
<metadata>
Created by potrace 1.11, written by Peter Selinger 2001-2013
</metadata>
<g transform="translate(0.000000,700.000000) scale(0.100000,-0.100000)"
fill="#000000" stroke="none">
<path d="M3298 6995 c-1 -1 -41 -5 -88 -9 -100 -7 -225 -22 -295 -36 -27 -5
-61 -12 -75 -14 -431 -79 -908 -273 -1275 -519 -69 -46 -297 -217 -305 -228
-3 -3 -25 -23 -50 -44 -84 -68 -252 -238 -374 -375 -97 -109 -297 -393 -376
-535 -234 -419 -373 -840 -435 -1315 -21 -164 -28 -573 -12 -730 12 -109 27
-226 41 -295 2 -11 6 -36 10 -55 49 -272 156 -595 283 -857 449 -928 1279
-1611 2270 -1868 72 -19 142 -36 155 -39 13 -2 60 -11 106 -20 46 -9 111 -19
145 -22 34 -3 65 -8 68 -9 15 -10 227 -20 409 -20 187 0 339 7 430 21 144 21
295 48 345 61 33 8 67 16 75 18 47 10 214 60 316 96 454 159 872 413 1223 744
92 87 207 206 256 265 21 25 41 47 44 50 18 12 182 236 247 336 310 477 503
1040 552 1609 14 164 7 569 -13 705 -3 19 -7 56 -10 81 -3 25 -7 54 -9 65 -2
10 -11 60 -21 109 -85 456 -276 915 -543 1305 -56 82 -194 265 -211 280 -3 3
-35 38 -71 79 -169 194 -484 469 -658 576 -9 6 -48 31 -87 56 -250 161 -559
301 -872 394 -102 31 -293 77 -368 89 -33 5 -224 32 -295 42 -47 6 -526 15
-532 9z m434 -309 c57 -4 114 -8 126 -11 11 -2 47 -6 79 -10 32 -3 76 -10 98
-15 22 -5 58 -11 80 -15 73 -11 309 -73 415 -110 791 -275 1419 -816 1810
-1560 123 -235 255 -612 293 -840 3 -16 10 -52 16 -80 5 -27 13 -77 16 -110 4
-33 9 -69 11 -80 2 -11 7 -69 11 -130 31 -484 -40 -943 -217 -1405 -43 -113
-163 -356 -230 -465 -322 -528 -785 -954 -1330 -1222 -264 -130 -575 -232
-850 -279 -14 -2 -36 -6 -50 -9 -14 -3 -47 -7 -75 -11 -27 -3 -61 -7 -75 -10
-125 -21 -650 -21 -711 0 -8 3 -42 7 -76 10 -72 6 -285 48 -393 77 -248 67
-504 170 -725 292 -85 48 -244 145 -255 157 -3 3 -27 21 -55 39 -197 137 -472
392 -610 568 -11 14 -38 49 -61 77 -153 191 -325 488 -429 740 -47 115 -124
341 -140 414 -27 118 -65 320 -71 367 -3 33 -8 69 -10 80 -7 35 -18 246 -18
345 0 92 11 320 18 370 2 14 7 50 10 80 4 30 9 62 11 70 2 8 7 34 10 57 20
141 110 451 182 628 367 898 1102 1573 2023 1858 154 48 369 96 505 112 28 4
61 8 75 10 14 3 68 7 120 11 52 3 96 6 97 7 4 4 280 -1 375 -7z"/>
<path d="M2130 3500 l0 -1979 150 1 c83 0 151 3 151 6 1 4 2 277 3 607 l1 600
760 0 760 0 1 -590 c1 -324 2 -598 3 -607 1 -15 17 -17 151 -16 l150 0 0 609
0 610 153 -3 152 -3 1 -600 c1 -330 2 -603 3 -607 1 -3 69 -6 151 -6 l150 0 0
1978 0 1978 -152 -2 -152 -1 -2 -900 c-1 -495 -2 -905 -3 -912 -1 -8 -194 -11
-758 -10 l-758 2 0 912 0 911 -152 0 -153 -1 0 -914 0 -914 -152 3 -153 3 -1
900 c-1 495 -2 905 -3 912 -1 8 -44 11 -151 11 l-150 1 0 -1979z m2431 -158
c4 -18 5 -278 2 -287 -2 -8 -337 -11 -1066 -10 l-1062 0 0 145 c-1 80 1 148 3
153 4 9 2122 9 2123 -1z"/>
<path d="M3959 5477 c-5 -10 -2 -1502 3 -1510 4 -7 57 -11 152 -12 l146 0 0
761 0 762 -150 0 c-82 1 -150 0 -151 -1z"/>
<path d="M2740 1979 l0 -457 150 0 c83 0 150 3 151 6 4 27 3 895 -1 900 -3 4
-71 7 -152 7 l-148 0 0 -456z"/>
</g>
</svg>
