<?xml version="1.0" encoding="UTF-8"?>
<svg width="32px" height="37px" viewBox="0 0 32 37" version="1.1" xmlns="http://www.w3.org/2000/svg" xmlns:xlink="http://www.w3.org/1999/xlink">
    <!-- Generator: Sketch 42 (36781) - http://www.bohemiancoding.com/sketch -->
    <title>Combined Shape</title>
    <desc>Created with Sketch.</desc>
    <defs></defs>
    <g id="Page-1" stroke="none" stroke-width="1" fill="none" fill-rule="evenodd">
        <path d="M16,0 C24.8221876,0 32,7.2025385 32,16.054261 C32,27.7317258 18.4620754,35.4289194 17.8856965,36.0076859 C17.8856965,36.0076859 16.4587099,37 15.9311935,37 C15.1254596,37 13.7812403,36.0076859 13.7812403,36.0076859 C13.2048613,35.4289194 0,27.7317258 0,16.054261 C0,7.2025385 7.1778124,0 16,0 Z M16.0957308,27.0968851 C22.2653786,27.0968851 27.2663135,22.0782387 27.2663135,15.8880409 C27.2663135,9.69784309 22.2653786,4.6801981 16.0957308,4.6801981 C9.92608289,4.6801981 4.92514802,9.69784309 4.92514802,15.8880409 C4.92514802,22.0782387 9.92608289,27.0968851 16.0957308,27.0968851 Z M10.8993456,10.7121864 C10.9073232,10.720197 10.9143035,10.7302103 10.9222811,10.7382209 L13.9038953,13.4528159 L15.1005298,12.2081676 L12.417077,9.23923574 C12.4090994,9.23122514 12.4001246,9.22421585 12.3911499,9.21720657 C12.3851667,9.21119861 12.3821751,9.20418933 12.376192,9.19818138 C11.9633531,8.78363238 11.294235,8.78363238 10.8813961,9.19818138 C10.4685572,9.61273037 10.4685572,10.2836188 10.8813961,10.6981678 C10.8863821,10.7031745 10.8943596,10.7071798 10.8993456,10.7121864 M23.7292615,19.3225894 L23.7412278,19.3346053 C23.7412278,19.3346053 22.8946089,16.8843604 20.7187286,15.8539958 C20.4674353,15.7228221 20.2161421,15.6307001 19.9688376,15.5756272 C19.9289498,15.5636113 19.858149,15.5515954 19.858149,15.5515954 C19.5988782,15.5035317 19.1022749,15.5285649 19.1022749,15.5285649 C19.1022749,15.5285649 18.3444064,15.6647452 17.9066376,15.228167 L17.1148644,14.365024 L20.9939545,10.7712646 C21.0019321,10.763254 21.0089124,10.7542421 21.01689,10.7462315 C21.021876,10.7402235 21.0288563,10.7362182 21.0358367,10.7302103 C21.4486756,10.3156613 21.4476784,9.64477281 21.0348395,9.23022381 C20.6220006,8.81667614 19.9528825,8.81667614 19.5410408,9.23122514 C19.5350577,9.23623177 19.5310689,9.24424238 19.5250857,9.24924901 C19.5171081,9.25725961 19.5081334,9.26326757 19.4991586,9.27227951 L13.7373637,15.5345728 C13.3015893,15.9801629 12.5786226,15.8049309 12.5786226,15.8049309 C11.6990963,15.6216882 10.6839514,15.9240887 9.79146151,16.8212768 C8.43128701,18.1850829 7.73125584,20.5412032 8.74739794,21.5605532 C9.76354004,22.5789018 12.110938,21.8769722 13.4701153,20.5131661 C14.3636024,19.6169792 14.6657526,18.5986306 14.4822686,17.715461 C14.4822686,17.715461 14.3097538,17.0005142 14.744531,16.560932 L15.9860393,15.4114097 L16.8825179,16.238505 C17.3282643,16.6770859 17.1916485,17.4461043 17.1916485,17.4461043 C17.1597382,17.6854212 17.2086008,18.1920922 17.2086008,18.1920922 C17.209598,18.1950962 17.2115924,18.1981002 17.2125896,18.2021055 C17.2694297,18.5165219 17.3861016,18.8379476 17.5645996,19.1573706 C18.6156435,21.2721713 20.9889685,22.0962626 20.9889685,22.0962626 C21.1943908,22.1743661 21.399813,22.2374496 21.6012465,22.2845119 C21.6122156,22.2875159 21.7089436,22.3005331 21.7787473,22.2304403 C21.8395762,22.1693594 21.8465566,22.0792401 21.8076659,22.0071446 L18.9167965,18.8229277 L18.9177937,18.8229277 C18.8260517,18.7107791 18.8320349,18.5455603 18.9357432,18.4404211 C19.0404487,18.3362832 19.2039888,18.3312766 19.3156747,18.4223972 L19.3166719,18.4213959 C19.4413213,18.5245325 21.5304456,20.4380666 22.5555625,21.2791805 C22.5615457,21.2811832 22.5705204,21.2811832 22.5775008,21.2821845 C22.6732315,21.3222376 22.7899034,21.305215 22.869679,21.2261103 C22.9504519,21.1450028 22.9654098,21.025845 22.9225304,20.9277151 C22.9185416,20.9156992 22.91555,20.9026819 22.9075725,20.890666 C22.0709255,19.8633055 20.1722655,17.7905605 20.0705516,17.666396 L20.0715488,17.6653947 C19.9788096,17.5532462 19.9847928,17.3880274 20.0885011,17.2838895 C20.1932066,17.1797516 20.3577438,17.1747449 20.4694297,17.2658656 L20.4694297,17.2648643 L23.6086008,20.1346648 C23.6833905,20.2017537 23.7980679,20.205759 23.8708632,20.1326622 C23.9257089,20.0765879 23.9287005,20.0034911 23.9267061,19.969446 C23.9217202,19.9444129 23.915737,19.9183784 23.9087566,19.8903413 C23.8628856,19.7040946 23.8020567,19.5138427 23.7292615,19.3225894" id="Combined-Shape" fill="#DC5D54" fill-rule="nonzero"></path>
    </g>
</svg>