<?xml version="1.0" encoding="UTF-8" standalone="no"?>
<svg width="51px" height="50px" viewBox="0 0 51 50" version="1.1" xmlns="http://www.w3.org/2000/svg" xmlns:xlink="http://www.w3.org/1999/xlink">
    <!-- Generator: Sketch 39.1 (31720) - http://www.bohemiancoding.com/sketch -->
    <title>crest--order</title>
    <desc>Created with Sketch.</desc>
    <defs></defs>
    <g id="Home" stroke="none" stroke-width="1" fill="none" fill-rule="evenodd" opacity="0.5">
        <path d="M25.644,0 C11.859699,0 0.644,11.2148764 0.644,24.9991774 C0.644,38.7837527 11.859699,49.9983549 25.644,49.9983549 C39.428301,49.9983549 50.644,38.7837527 50.644,24.9991774 C50.644,11.2148764 39.428301,0 25.644,0 Z M25.644,48.4456228 C12.7151685,48.4456228 2.19755459,37.9274606 2.19755459,24.9991774 C2.19755459,12.0711685 12.7151685,1.55355459 25.644,1.55355459 C38.5728315,1.55355459 49.0904454,12.0711685 49.0904454,24.9991774 C49.0904454,37.9274606 38.5728315,48.4456228 25.644,48.4456228 Z M33.8086066,24.2257178 L22.1265122,24.2257178 L22.1265122,11.4205455 L20.5704899,11.4205455 L20.5704899,24.2257178 L17.4537842,24.2257178 L17.4537842,11.4205455 L15.8961167,11.4205455 L15.8961167,38.6335245 L17.4537842,38.6335245 L17.4537842,29.6776909 L29.1375237,29.6776909 L29.1375237,38.6335245 L30.6951911,38.6335245 L30.6951911,29.6776909 L33.8086066,29.6776909 L33.8086066,38.6335245 L35.3679191,38.6335245 L35.3679191,11.4205455 L33.8086066,11.4205455 L33.8086066,24.2257178 Z M17.4537842,28.1200235 L33.8086066,28.1200235 L33.8086066,25.7833852 L17.4537842,25.7833852 L17.4537842,28.1200235 Z M29.1375237,23.059318 L30.6951911,23.059318 L30.6951911,11.4205455 L29.1375237,11.4205455 L29.1375237,23.059318 Z M20.5704899,38.6335245 L22.1265122,38.6335245 L22.1265122,30.8465584 L20.5704899,30.8465584 L20.5704899,38.6335245 Z" id="crest--order" fill="#807D7B"></path>
    </g>
</svg>