<?xml version="1.0" encoding="UTF-8" standalone="no"?>
<svg width="183px" height="183px" viewBox="0 0 183 183" version="1.1" xmlns="http://www.w3.org/2000/svg" xmlns:xlink="http://www.w3.org/1999/xlink">
    <!-- Generator: Sketch 39.1 (31720) - http://www.bohemiancoding.com/sketch -->
    <title>crest--light</title>
    <desc>Created with Sketch.</desc>
    <defs></defs>
    <g id="Home" stroke="none" stroke-width="1" fill="none" fill-rule="evenodd">
        <path d="M91.1777,-0.0001 C40.9047,-0.0001 -0.0003,40.9019 -0.0003,91.1749 C-0.0003,141.4489 40.9047,182.3499 91.1777,182.3499 C141.4507,182.3499 182.3557,141.4489 182.3557,91.1749 C182.3557,40.9019 141.4507,-0.0001 91.1777,-0.0001 Z M91.1777,176.6869 C44.0247,176.6869 5.6657,138.3259 5.6657,91.1749 C5.6657,44.0249 44.0247,5.6659 91.1777,5.6659 C138.3307,5.6659 176.6897,44.0249 176.6897,91.1749 C176.6897,138.3259 138.3307,176.6869 91.1777,176.6869 Z M72.674,140.901 L78.349,140.901 L78.349,112.501 L72.674,112.501 L72.674,140.901 Z M103.919,84.1 L109.6,84.1 L109.6,41.652 L103.919,41.652 L103.919,84.1 Z M120.955,88.354 L78.349,88.354 L78.349,41.652 L72.674,41.652 L72.674,88.354 L61.307,88.354 L61.307,41.652 L55.626,41.652 L55.626,140.901 L61.307,140.901 L61.307,108.238 L103.919,108.238 L103.919,140.901 L109.6,140.901 L109.6,108.238 L120.955,108.238 L120.955,140.901 L126.642,140.901 L126.642,41.652 L120.955,41.652 L120.955,88.354 Z M61.307,102.557 L120.955,102.557 L120.955,94.035 L61.307,94.035 L61.307,102.557 Z" id="crest--light" fill="#FEFEFE"></path>
    </g>
</svg>