<?xml version="1.0" encoding="UTF-8" standalone="no"?>
<svg width="50px" height="50px" viewBox="0 0 50 50" version="1.1" xmlns="http://www.w3.org/2000/svg" xmlns:xlink="http://www.w3.org/1999/xlink">
    <!-- Generator: Sketch 39.1 (31720) - http://www.bohemiancoding.com/sketch -->
    <title>crest--dark</title>
    <desc>Created with Sketch.</desc>
    <defs></defs>
    <g id="Home" stroke="none" stroke-width="1" fill="none" fill-rule="evenodd">
        <path d="M25,0 C11.215699,0 0,11.2148764 0,24.9991774 C0,38.7837527 11.215699,49.9983549 25,49.9983549 C38.784301,49.9983549 50,38.7837527 50,24.9991774 C50,11.2148764 38.784301,0 25,0 Z M25,48.4456228 C12.0711685,48.4456228 1.55355459,37.9274606 1.55355459,24.9991774 C1.55355459,12.0711685 12.0711685,1.55355459 25,1.55355459 C37.9288315,1.55355459 48.4464454,12.0711685 48.4464454,24.9991774 C48.4464454,37.9274606 37.9288315,48.4456228 25,48.4456228 Z M33.1646066,24.2257178 L21.4825122,24.2257178 L21.4825122,11.4205455 L19.9264899,11.4205455 L19.9264899,24.2257178 L16.8097842,24.2257178 L16.8097842,11.4205455 L15.2521167,11.4205455 L15.2521167,38.6335245 L16.8097842,38.6335245 L16.8097842,29.6776909 L28.4935237,29.6776909 L28.4935237,38.6335245 L30.0511911,38.6335245 L30.0511911,29.6776909 L33.1646066,29.6776909 L33.1646066,38.6335245 L34.7239191,38.6335245 L34.7239191,11.4205455 L33.1646066,11.4205455 L33.1646066,24.2257178 Z M16.8097842,28.1200235 L33.1646066,28.1200235 L33.1646066,25.7833852 L16.8097842,25.7833852 L16.8097842,28.1200235 Z M28.4935237,23.059318 L30.0511911,23.059318 L30.0511911,11.4205455 L28.4935237,11.4205455 L28.4935237,23.059318 Z M19.9264899,38.6335245 L21.4825122,38.6335245 L21.4825122,30.8465584 L19.9264899,30.8465584 L19.9264899,38.6335245 Z" id="crest--dark" fill="#383736"></path>
    </g>
</svg>