<?xml version="1.0" encoding="UTF-8"?>
<svg width="46px" height="46px" viewBox="0 0 46 46" version="1.1" xmlns="http://www.w3.org/2000/svg" xmlns:xlink="http://www.w3.org/1999/xlink">
    <!-- Generator: Sketch 43.2 (39069) - http://www.bohemiancoding.com/sketch -->
    <title>logo__crest__simple--gold</title>
    <desc>Created with Sketch.</desc>
    <defs></defs>
    <g id="Symbols" stroke="none" stroke-width="1" fill="none" fill-rule="evenodd">
        <g id="logo__crest__simple--gold" fill="#CFAA43">
            <path d="M16,28 L16,36 L14,36 L14,10 L16,10 L16,22 L30,22 L30,10 L32,10 L32,36 L30,36 L30,28 L28,28 L28,36 L26,36 L26,28 L16,28 Z M16,26 L30,26 L30,24 L16,24 L16,26 Z M18,10 L20,10 L20,22 L18,22 L18,10 Z M18,30 L20,30 L20,36 L18,36 L18,30 Z M26,10 L28,10 L28,20 L26,20 L26,10 Z M23,46 C10.2974508,46 0,35.7025492 0,23 C0,10.2974508 10.2974508,0 23,0 C35.7025492,0 46,10.2974508 46,23 C46,35.7025492 35.7025492,46 23,46 Z M23,44 C34.5979797,44 44,34.5979797 44,23 C44,11.4020203 34.5979797,2 23,2 C11.4020203,2 2,11.4020203 2,23 C2,34.5979797 11.4020203,44 23,44 Z"></path>
        </g>
    </g>
</svg>