<?xml version="1.0" encoding="UTF-8" standalone="no"?>
<svg width="183px" height="183px" viewBox="0 0 183 183" version="1.1" xmlns="http://www.w3.org/2000/svg" xmlns:xlink="http://www.w3.org/1999/xlink">
    <!-- Generator: Sketch 39.1 (31720) - http://www.bohemiancoding.com/sketch -->
    <title>crest--light</title>
    <desc>Created with Sketch.</desc>
    <defs></defs>
    <g id="Home" stroke="none" stroke-width="1" fill="none" fill-rule="evenodd">
        <path d="M91.178,0 C40.905,0 0,40.902 0,91.175 C0,141.449 40.905,182.35 91.178,182.35 C141.451,182.35 182.356,141.449 182.356,91.175 C182.356,40.902 141.451,0 91.178,0 Z M91.178,176.687 C44.025,176.687 5.666,138.326 5.666,91.175 C5.666,44.025 44.025,5.666 91.178,5.666 C138.331,5.666 176.69,44.025 176.69,91.175 C176.69,138.326 138.331,176.687 91.178,176.687 Z M120.9553,88.3541 L78.3493,88.3541 L78.3493,41.6521 L72.6743,41.6521 L72.6743,88.3541 L61.3073,88.3541 L61.3073,41.6521 L55.6263,41.6521 L55.6263,140.9011 L61.3073,140.9011 L61.3073,108.2381 L103.9193,108.2381 L103.9193,140.9011 L109.6003,140.9011 L109.6003,108.2381 L120.9553,108.2381 L120.9553,140.9011 L126.6423,140.9011 L126.6423,41.6521 L120.9553,41.6521 L120.9553,88.3541 Z M61.3073,102.5571 L120.9553,102.5571 L120.9553,94.0351 L61.3073,94.0351 L61.3073,102.5571 Z M103.9193,84.1001 L109.6003,84.1001 L109.6003,41.6521 L103.9193,41.6521 L103.9193,84.1001 Z M72.6743,140.9011 L78.3493,140.9011 L78.3493,112.5011 L72.6743,112.5011 L72.6743,140.9011 Z" id="crest--light" fill="#FEFEFE"></path>
    </g>
</svg>