<?xml version="1.0" encoding="UTF-8"?>
<svg width="20px" height="20px" viewBox="0 0 20 20" version="1.1" xmlns="http://www.w3.org/2000/svg" xmlns:xlink="http://www.w3.org/1999/xlink">
    <!-- Generator: Sketch 43.2 (39069) - http://www.bohemiancoding.com/sketch -->
    <title>instagram--inline</title>
    <desc>Created with Sketch.</desc>
    <defs></defs>
    <g id="The-Facts" stroke="none" stroke-width="1" fill="none" fill-rule="evenodd">
        <g id="768__medium" transform="translate(-517.000000, -699.000000)" fill="#2B262F">
            <g id="more-photos-on-instagram" transform="translate(517.000000, 699.000000)">
                <g id="instagram--inline">
                    <path d="M9.99686508,0 C12.7118254,0 13.0522619,0.0115079365 14.1185317,0.0601587302 C15.1825794,0.108690476 15.9092857,0.277698413 16.5451587,0.52484127 C17.2025397,0.780277778 17.7600397,1.12210317 18.3158333,1.67785714 C18.8715873,2.23365079 19.2134127,2.79115079 19.4688889,3.44853175 C19.7159921,4.08440476 19.885,4.81111111 19.9335317,5.87515873 C19.9821825,6.94142857 19.9936905,7.28186508 19.9936905,9.99686508 C19.9936905,12.7118254 19.9821825,13.0522619 19.9335317,14.1185317 C19.885,15.1825794 19.7159921,15.9092857 19.4688889,16.5451587 C19.2134127,17.2025397 18.8715873,17.7600397 18.3158333,18.3158333 C17.7600397,18.8715873 17.2025397,19.2134127 16.5451587,19.4688889 C15.9092857,19.7159921 15.1825794,19.885 14.1185317,19.9335317 C13.0522619,19.9821825 12.7118254,19.9936905 9.99686508,19.9936905 C7.28186508,19.9936905 6.94142857,19.9821825 5.87515873,19.9335317 C4.81111111,19.885 4.08440476,19.7159921 3.44853175,19.4688889 C2.79115079,19.2134127 2.23365079,18.8715873 1.67785714,18.3158333 C1.12210317,17.7600397 0.780277778,17.2025397 0.52484127,16.5451587 C0.277698413,15.9092857 0.108690476,15.1825794 0.0601587302,14.1185317 C0.0115079365,13.0522619 0,12.7118254 0,9.99686508 C0,7.28186508 0.0115079365,6.94142857 0.0601587302,5.87515873 C0.108690476,4.81111111 0.277698413,4.08440476 0.52484127,3.44853175 C0.780277778,2.79115079 1.12210317,2.23365079 1.67785714,1.67785714 C2.23365079,1.12210317 2.79115079,0.780277778 3.44853175,0.52484127 C4.08440476,0.277698413 4.81111111,0.108690476 5.87515873,0.0601587302 C6.94142857,0.0115079365 7.28186508,0 9.99686508,0 Z M9.99686508,1.80123016 C7.32757937,1.80123016 7.01138889,1.81142857 5.9572619,1.85952381 C4.98257937,1.90396825 4.45325397,2.0668254 4.10099206,2.20373016 C3.63436508,2.38507937 3.30134921,2.60170635 2.95154762,2.95154762 C2.60170635,3.30134921 2.38507937,3.63436508 2.20373016,4.10099206 C2.0668254,4.45325397 1.90396825,4.98257937 1.85952381,5.9572619 C1.81142857,7.01138889 1.80123016,7.32757937 1.80123016,9.99686508 C1.80123016,12.6661111 1.81142857,12.9823016 1.85952381,14.0364286 C1.90396825,15.0111111 2.0668254,15.5404365 2.20373016,15.8926984 C2.38507937,16.3593254 2.60174603,16.6923413 2.95154762,17.0421429 C3.30134921,17.3919841 3.63436508,17.6086111 4.10099206,17.7899603 C4.45325397,17.9268651 4.98257937,18.0897222 5.9572619,18.1341667 C7.01126984,18.1822619 7.32738095,18.1924603 9.99686508,18.1924603 C12.6663095,18.1924603 12.9824603,18.1822619 14.0364286,18.1341667 C15.0111111,18.0897222 15.5404365,17.9268651 15.8926984,17.7899603 C16.3593254,17.6086111 16.6923413,17.3919841 17.0421429,17.0421429 C17.3919841,16.6923413 17.6086111,16.3593254 17.7899603,15.8926984 C17.9268651,15.5404365 18.0897222,15.0111111 18.1341667,14.0364286 C18.1822619,12.9823016 18.1924603,12.6661111 18.1924603,9.99686508 C18.1924603,7.32757937 18.1822619,7.01138889 18.1341667,5.9572619 C18.0897222,4.98257937 17.9268651,4.45325397 17.7899603,4.10099206 C17.6086111,3.63436508 17.3919841,3.30134921 17.0421429,2.95154762 C16.6923413,2.60170635 16.3593254,2.38507937 15.8926984,2.20373016 C15.5404365,2.0668254 15.0111111,1.90396825 14.0364286,1.85952381 C12.9823016,1.81142857 12.6661111,1.80123016 9.99686508,1.80123016 Z M9.99686508,4.86333333 C12.8320238,4.86333333 15.1303571,7.16166667 15.1303571,9.99686508 C15.1303571,12.8320238 12.8320238,15.1303571 9.99686508,15.1303571 C7.16166667,15.1303571 4.86333333,12.8320238 4.86333333,9.99686508 C4.86333333,7.16166667 7.16166667,4.86333333 9.99686508,4.86333333 Z M9.99686508,13.329127 C11.8372222,13.329127 13.329127,11.8372222 13.329127,9.99686508 C13.329127,8.15646825 11.8372222,6.66456349 9.99686508,6.66456349 C8.15646825,6.66456349 6.66456349,8.15646825 6.66456349,9.99686508 C6.66456349,11.8372222 8.15646825,13.329127 9.99686508,13.329127 Z M16.5328175,4.66051587 C16.5328175,5.32305556 15.9957143,5.86011905 15.3331746,5.86011905 C14.6706746,5.86011905 14.1335714,5.32305556 14.1335714,4.66051587 C14.1335714,3.99797619 14.6706746,3.46087302 15.3331746,3.46087302 C15.9957143,3.46087302 16.5328175,3.99797619 16.5328175,4.66051587 Z"></path>
                </g>
            </g>
        </g>
    </g>
</svg>