<?xml version="1.0" encoding="UTF-8"?>
<svg width="28px" height="28px" viewBox="0 0 28 28" version="1.1" xmlns="http://www.w3.org/2000/svg" xmlns:xlink="http://www.w3.org/1999/xlink">
    <!-- Generator: Sketch 43.2 (39069) - http://www.bohemiancoding.com/sketch -->
    <title>icon--previous--ring</title>
    <desc>Created with Sketch.</desc>
    <defs></defs>
    <g id="Symbols" stroke="none" stroke-width="1" fill="none" fill-rule="evenodd">
        <g id="facts__modal__navigation__mobile" transform="translate(-8.000000, -68.000000)">
            <g id="icon--previous--ring">
                <g transform="translate(8.000000, 68.000000)">
                    <g>
                        <path d="M14,0 C6.26818182,0 0,6.26818182 0,14 C0,21.7318182 6.26818182,28 14,28 C21.7318182,28 28,21.7318182 28,14 C28,6.26818182 21.7318182,0 14,0 L14,0 Z" id="ring" fill="#2B262F"></path>
                        <path d="M16.4683892,7.98245534 C16.5875118,7.89906949 16.5,7.85271916 16.5,8.00684547 L16.5,19.9931545 C16.5,20.1459872 16.5865112,20.10023 16.4683892,20.0175447 L8.10507314,14.1632234 C7.93812545,14.04636 7.93820263,13.9535859 8.10507314,13.8367766 L16.4683892,7.98245534 L16.4683892,7.98245534 Z" id="Rectangle-10" stroke="#FFFFFF"></path>
                        <path d="M16.5032244,16.5419293 L13.1129532,14.1687395 C12.9361732,14.0449935 12.9356086,13.9554018 13.1126521,13.8314713 L16.5019011,11.458997 L16.5032244,16.5419293 Z" id="Rectangle-10" stroke="#FFFFFF"></path>
                    </g>
                </g>
            </g>
        </g>
    </g>
</svg>