<?xml version="1.0" encoding="utf-8"?>
<!-- Generator: Adobe Illustrator 16.0.4, SVG Export Plug-In . SVG Version: 6.00 Build 0)  -->
<!DOCTYPE svg PUBLIC "-//W3C//DTD SVG 1.1//EN" "http://www.w3.org/Graphics/SVG/1.1/DTD/svg11.dtd">
<svg version="1.1" id="Layer_1" xmlns="http://www.w3.org/2000/svg" xmlns:xlink="http://www.w3.org/1999/xlink" x="0px" y="0px"
	 width="122px" height="100px" viewBox="0 0 122 100" enable-background="new 0 0 122 100" xml:space="preserve">
<title>logo--monogram--gold</title>
<desc>Created with Sketch.</desc>
<g id="Coming-soon">
	<g id="monogram--footer">
		<path id="monogram-footer" fill="#FFFFFF" d="M44.397,23.182c0-0.507,0.412-0.919,0.919-0.919c0.507,0,0.919,0.412,0.919,0.919
			c0,0.507-0.412,0.919-0.919,0.919C44.809,24.102,44.397,23.689,44.397,23.182L44.397,23.182z M121.235,50
			c0,0.406-0.329,0.735-0.735,0.735h-19.485c-0.406,0-0.735-0.329-0.735-0.735c0-0.406,0.329-0.735,0.735-0.735H120.5
			C120.906,49.265,121.235,49.594,121.235,50L121.235,50z M60.941,72.059c-12.164,0-22.059-9.896-22.059-22.059
			s9.896-22.059,22.059-22.059C73.104,27.941,83,37.837,83,50S73.104,72.059,60.941,72.059L60.941,72.059z M62.901,93.172
			c-0.646,1.18-1.304,2.383-1.96,3.621c-0.656-1.238-1.315-2.441-1.96-3.621c-5.039-9.202-7.723-14.753-3.292-19.643h0.516
			c-1.669,4.444-0.532,10.754,4.737,14.706c5.27-3.952,6.406-10.262,4.736-14.706h0.516C70.623,78.419,67.939,83.97,62.901,93.172
			L62.901,93.172z M61.359,73.529c0.627,0.92,0.908,2.312,0.74,3.789c-0.141,1.227-0.562,2.321-1.158,3.072
			c-0.597-0.751-1.019-1.846-1.158-3.072c-0.168-1.477,0.112-2.869,0.74-3.789H61.359z M64.693,79.854
			c-0.367,1.804-1.32,4.31-3.752,6.482c-2.433-2.173-3.386-4.679-3.752-6.482c-0.453-2.229-0.231-4.487,0.602-6.325h1.058
			c-1.289,2.893-0.376,7.281,2.092,8.824c2.467-1.543,3.381-5.932,2.092-8.824h1.059C64.925,75.367,65.146,77.625,64.693,79.854
			L64.693,79.854z M58.981,6.828c0.646-1.179,1.304-2.382,1.96-3.621c0.656,1.238,1.314,2.442,1.96,3.621
			c5.038,9.203,7.722,14.753,3.292,19.643h-0.516c1.67-4.444,0.533-10.754-4.736-14.706c-5.27,3.952-6.406,10.262-4.737,14.706
			h-0.516C51.258,21.581,53.942,16.031,58.981,6.828L58.981,6.828z M60.523,26.471c-0.627-0.919-0.908-2.312-0.74-3.788
			c0.14-1.228,0.562-2.322,1.158-3.073c0.597,0.751,1.018,1.845,1.158,3.073c0.168,1.476-0.113,2.869-0.74,3.788H60.523z
			 M57.189,20.146c0.366-1.803,1.319-4.31,3.752-6.482c2.432,2.172,3.385,4.68,3.752,6.482c0.453,2.23,0.231,4.488-0.602,6.325
			h-1.059c1.289-2.893,0.375-7.281-2.092-8.824c-2.468,1.542-3.381,5.931-2.092,8.824h-1.058
			C56.958,24.633,56.736,22.376,57.189,20.146L57.189,20.146z M110.206,53.797c0.405,0,0.735-0.33,0.735-0.735
			c0-0.406-0.33-0.735-0.735-0.735c-2.548,0-3.398,1.311-3.663,2.41c-0.182,0.754-0.115,1.671,0.095,2.629
			c-3.694-4.141-8.368-6.476-13.118-6.485h-0.031c-3.579,0-6.862,1.339-9.487,3.814c0.308-1.517,0.47-3.087,0.47-4.694
			c0-1.608-0.162-3.177-0.47-4.694c2.625,2.475,5.908,3.814,9.487,3.814h0.031c4.75-0.01,9.424-2.345,13.118-6.485
			c-0.21,0.958-0.276,1.874-0.095,2.628c0.265,1.1,1.115,2.41,3.663,2.41c0.405,0,0.735-0.329,0.735-0.735
			c0-0.406-0.33-0.735-0.735-0.735c-1.618,0-1.964-0.65-2.077-0.864c-0.996-1.868,1.51-6.632,2.535-8.157l-0.016-0.01
			c0.281-0.522,0.176-0.645-0.031-0.886c-0.221-0.258-0.59-0.331-0.893-0.177c-0.059,0.03-0.153,0.129-0.274,0.287l-0.02-0.013
			c-0.005,0.008-0.584,0.912-2.394,3.411c-3.607,4.981-8.535,7.844-13.521,7.855h-0.027c-4.057,0-7.7-1.93-10.262-5.437
			c-0.037-0.05-0.08-0.091-0.125-0.129c-2.543-7.115-8.413-12.644-15.737-14.719c6.43-7.237-0.692-15.906-6.423-27.365
			c-5.729,11.459-12.852,20.128-6.423,27.365c-7.325,2.075-13.195,7.604-15.738,14.719c-0.045,0.038-0.087,0.08-0.124,0.129
			c-2.562,3.507-6.206,5.437-10.263,5.437h-0.028c-4.985-0.011-9.913-2.874-13.521-7.855c-1.81-2.5-2.389-3.403-2.394-3.411
			l-0.021,0.012c-0.12-0.157-0.215-0.256-0.273-0.286l-0.516-0.263l-0.377,0.44c-0.207,0.241-0.312,0.364-0.031,0.886l-0.015,0.01
			c1.025,1.525,3.531,6.289,2.536,8.157c-0.113,0.213-0.46,0.864-2.078,0.864c-0.406,0-0.735,0.33-0.735,0.735
			c0,0.406,0.329,0.735,0.735,0.735c2.548,0,3.398-1.311,3.662-2.41c0.182-0.754,0.116-1.671-0.094-2.628
			c3.694,4.14,8.368,6.475,13.118,6.485h0.031c3.579,0,6.862-1.339,9.487-3.815c-0.308,1.517-0.47,3.086-0.47,4.694
			c0,1.607,0.162,3.178,0.47,4.694c-2.625-2.476-5.907-3.814-9.487-3.814h-0.031c-4.75,0.01-9.424,2.345-13.118,6.485
			c0.21-0.958,0.276-1.875,0.094-2.629c-0.264-1.1-1.114-2.41-3.662-2.41c-0.406,0-0.735,0.329-0.735,0.735
			c0,0.405,0.329,0.735,0.735,0.735c1.618,0,1.964,0.65,2.078,0.863c0.995,1.869-1.51,6.633-2.536,8.158l0.015,0.01
			c-0.28,0.521-0.175,0.645,0.031,0.885c0.144,0.168,0.349,0.258,0.559,0.258c0.113,0,0.228-0.026,0.334-0.08
			c0.059-0.029,0.153-0.129,0.274-0.287l0.02,0.013c0.005-0.007,0.584-0.911,2.394-3.411c3.608-4.98,8.536-7.844,13.521-7.854h0.028
			c4.056,0,7.701,1.93,10.263,5.437c0.037,0.049,0.079,0.092,0.124,0.129c2.542,7.115,8.413,12.644,15.738,14.719
			c-6.429,7.237,0.694,15.906,6.423,27.365c5.73-11.459,12.853-20.128,6.423-27.365c7.324-2.075,13.194-7.604,15.737-14.719
			c0.045-0.037,0.088-0.079,0.125-0.129c2.562-3.507,6.205-5.437,10.262-5.437h0.027c4.986,0.011,9.914,2.874,13.521,7.854
			c1.81,2.5,2.389,3.404,2.394,3.411l0.021-0.013c0.12,0.158,0.215,0.258,0.273,0.287l0.516,0.263l0.377-0.44
			c0.207-0.24,0.312-0.363,0.031-0.885l0.016-0.01c-1.025-1.525-3.531-6.289-2.535-8.158
			C108.242,54.447,108.588,53.797,110.206,53.797L110.206,53.797z M20.868,50.735H1.382c-0.406,0-0.735-0.329-0.735-0.735
			c0-0.406,0.329-0.735,0.735-0.735h19.485c0.406,0,0.735,0.33,0.735,0.735C21.603,50.406,21.273,50.735,20.868,50.735
			L20.868,50.735z M76.707,77.737c-0.507,0-0.919-0.412-0.919-0.919c0-0.508,0.412-0.92,0.919-0.92c0.508,0,0.919,0.412,0.919,0.92
			C77.626,77.325,77.215,77.737,76.707,77.737L76.707,77.737z M80.199,75.898c-0.608,0-1.103-0.494-1.103-1.103
			s0.494-1.103,1.103-1.103c0.609,0,1.104,0.494,1.104,1.103S80.809,75.898,80.199,75.898L80.199,75.898z M95.273,64.135
			c0,0.811-0.658,1.471-1.471,1.471s-1.471-0.66-1.471-1.471c0-0.812,0.658-1.471,1.471-1.471S95.273,63.322,95.273,64.135
			L95.273,64.135z M84.611,74.428c-0.812,0-1.471-0.658-1.471-1.471c0-0.812,0.658-1.47,1.471-1.47s1.471,0.658,1.471,1.47
			C86.082,73.77,85.424,74.428,84.611,74.428L84.611,74.428z M104.628,67.646c-0.458,6.232-3.993,9.54-7.736,13.043
			c-2.03,1.899-4.116,3.852-5.685,6.311c-0.262-3.158,1.227-5.85,4.442-8.021c3.981-2.48,6.903-5.848,7.511-11.414
			c0.592-5.438-2.664-10.121-7.742-11.137c-2.033-0.406-4.365,0.184-6.24,1.576c-1.78,1.322-2.908,3.197-3.092,5.141
			c-0.174,1.812,0.492,3.652,1.78,4.921c1.227,1.208,2.841,1.771,4.547,1.579c1.001-0.111,2.388-0.464,3.302-1.512
			c0.256-0.291,0.24-0.732-0.035-1.006c-0.276-0.273-0.717-0.284-1.006-0.026c-0.632,0.561-1.475,0.814-2.307,0.696
			c-0.897-0.129-1.691-0.599-2.234-1.324c-0.543-0.725-0.771-1.617-0.643-2.516c0.153-1.07,0.715-2.02,1.582-2.669
			c0.885-0.663,2.291-1.015,3.344-0.841c1.535,0.256,4.285,1.709,4.188,5.353c-0.008,0.037-0.018,0.075-0.02,0.114
			c-0.035,0.436-0.09,0.849-0.158,1.244c-0.275,1.059-0.859,1.966-1.729,2.653c-1.342,1.062-3.275,1.532-5.174,1.263
			c-3.942-0.564-6.691-4.23-6.129-8.172c0.619-4.328,4.381-7.592,8.748-7.592c0.418,0,0.842,0.03,1.257,0.09
			C101.113,56.217,105.082,61.481,104.628,67.646L104.628,67.646z M95.607,53.944c-0.484-0.069-0.978-0.104-1.465-0.104
			c-5.066,0-9.431,3.766-10.189,8.771c-1.523,4.537-3.992,6.285-6.381,7.975c-2.402,1.697-4.672,3.303-5.448,7.381
			c-0.075,0.399,0.187,0.784,0.585,0.86c0.047,0.009,0.093,0.013,0.139,0.013c0.346,0,0.654-0.245,0.722-0.598
			c0.665-3.496,2.606-4.868,4.853-6.457c1.92-1.357,4.038-2.863,5.674-5.83c0.812,3.358,3.596,6.055,7.219,6.574
			c1.699,0.242,3.43-0.018,4.885-0.7c-2.379,2.566-6.258,3.63-10.512,4.793c-5.312,1.452-10.804,2.954-14.175,7.673
			c-0.235,0.33-0.159,0.789,0.171,1.025c0.13,0.093,0.279,0.137,0.428,0.137c0.229,0,0.455-0.106,0.598-0.308
			c3.067-4.293,8.303-5.725,13.367-7.108c6.156-1.684,12.51-3.423,13.791-10.592c0.083-0.338,0.148-0.684,0.182-1.043
			c0.239-2.632-0.74-4.337-1.604-5.303c-0.982-1.102-2.363-1.869-3.787-2.106c-1.437-0.237-3.273,0.22-4.467,1.114
			c-1.183,0.885-1.948,2.178-2.156,3.639c-0.135,0.943,0.005,1.885,0.396,2.729c-0.666-0.908-0.99-2.057-0.882-3.195
			c0.146-1.529,1.059-3.023,2.505-4.099c1.547-1.149,3.444-1.641,5.074-1.315c4.314,0.863,7.076,4.874,6.568,9.536
			c-0.521,4.772-2.912,7.761-6.332,10.018c-0.041,0.017-0.08,0.037-0.119,0.062c-0.183,0.116-0.359,0.233-0.533,0.353
			c-2.691,1.646-5.945,2.909-9.396,4.248c-7.937,3.079-16.143,6.263-19.405,14.709c-0.147,0.379,0.042,0.805,0.421,0.95
			c0.086,0.034,0.176,0.051,0.265,0.051c0.295,0,0.573-0.18,0.686-0.471c3.028-7.84,10.928-10.904,18.565-13.869
			c1.838-0.712,3.652-1.416,5.377-2.182c-1.551,2.352-1.924,5.076-1.07,8.062c0.084,0.295,0.342,0.506,0.646,0.531
			c0.301,0.025,0.593-0.141,0.725-0.417c1.479-3.108,3.855-5.333,6.371-7.687c3.784-3.542,7.697-7.205,8.198-14.01
			C106.605,60.809,102.097,54.871,95.607,53.944L95.607,53.944z M45.289,75.898c0.507,0,0.919,0.412,0.919,0.92
			c0,0.507-0.412,0.919-0.919,0.919c-0.508,0-0.919-0.412-0.919-0.919C44.37,76.311,44.78,75.898,45.289,75.898L45.289,75.898z
			 M41.796,73.693c0.608,0,1.103,0.494,1.103,1.103s-0.495,1.103-1.103,1.103c-0.609,0-1.103-0.494-1.103-1.103
			S41.187,73.693,41.796,73.693L41.796,73.693z M26.723,64.135c0-0.812,0.658-1.471,1.47-1.471s1.471,0.658,1.471,1.471
			c0,0.811-0.659,1.471-1.471,1.471S26.723,64.945,26.723,64.135L26.723,64.135z M37.384,71.487c0.812,0,1.471,0.658,1.471,1.47
			c0,0.812-0.659,1.471-1.471,1.471c-0.812,0-1.471-0.658-1.471-1.471C35.914,72.146,36.572,71.487,37.384,71.487L37.384,71.487z
			 M30.788,87c-1.568-2.459-3.654-4.411-5.685-6.311c-3.743-3.503-7.278-6.811-7.736-13.043c-0.454-6.165,3.513-11.43,9.228-12.246
			c0.417-0.06,0.84-0.09,1.258-0.09c4.368,0,8.128,3.264,8.748,7.592c0.562,3.941-2.187,7.607-6.128,8.172
			c-1.896,0.271-3.833-0.201-5.174-1.263c-0.87-0.688-1.454-1.596-1.729-2.654c-0.07-0.396-0.123-0.808-0.158-1.243
			c-0.003-0.04-0.012-0.078-0.021-0.115c-0.097-3.644,2.653-5.096,4.188-5.352c1.053-0.174,2.46,0.178,3.344,0.841
			c0.867,0.649,1.429,1.599,1.582,2.67c0.128,0.897-0.1,1.79-0.644,2.516c-0.542,0.726-1.335,1.194-2.232,1.323
			c-0.836,0.116-1.676-0.135-2.307-0.697c-0.29-0.257-0.731-0.246-1.007,0.027c-0.275,0.273-0.292,0.715-0.036,1.006
			c0.915,1.048,2.301,1.4,3.302,1.512c1.703,0.191,3.32-0.371,4.547-1.579c1.289-1.269,1.954-3.108,1.781-4.921
			c-0.185-1.943-1.312-3.818-3.092-5.141c-1.875-1.394-4.208-1.984-6.24-1.576c-5.079,1.016-8.334,5.699-7.741,11.137
			c0.606,5.566,3.527,8.934,7.511,11.414C29.561,81.151,31.049,83.842,30.788,87L30.788,87z M36.679,82.085
			c-3.45-1.339-6.705-2.601-9.395-4.247c-0.174-0.12-0.352-0.237-0.535-0.354c-0.038-0.024-0.078-0.045-0.119-0.062
			c-3.422-2.257-5.812-5.245-6.332-10.018c-0.509-4.662,2.254-8.673,6.568-9.536c1.63-0.324,3.528,0.166,5.074,1.315
			c1.447,1.075,2.36,2.569,2.506,4.099c0.108,1.139-0.217,2.289-0.883,3.196c0.392-0.845,0.533-1.786,0.397-2.729
			c-0.208-1.461-0.974-2.754-2.155-3.639c-1.195-0.896-3.035-1.354-4.468-1.114c-1.424,0.237-2.805,1.005-3.788,2.106
			c-0.863,0.966-1.842,2.671-1.603,5.303c0.032,0.359,0.098,0.705,0.182,1.043c1.282,7.169,7.634,8.908,13.792,10.592
			c5.064,1.384,10.3,2.815,13.366,7.108c0.144,0.201,0.37,0.308,0.599,0.308c0.147,0,0.297-0.044,0.427-0.137
			c0.331-0.236,0.407-0.695,0.171-1.025c-3.371-4.719-8.864-6.221-14.176-7.673c-4.253-1.163-8.131-2.227-10.511-4.792
			c1.455,0.683,3.187,0.943,4.885,0.699c3.609-0.518,6.385-3.195,7.209-6.536c1.614,2.954,3.738,4.454,5.665,5.809
			c2.258,1.587,4.208,2.957,4.871,6.44c0.067,0.353,0.375,0.598,0.722,0.598c0.046,0,0.092-0.004,0.139-0.013
			c0.399-0.076,0.661-0.461,0.584-0.86c-0.775-4.068-3.056-5.672-5.47-7.367c-2.403-1.689-4.886-3.437-6.358-7.984
			c-0.756-5.008-5.122-8.775-10.189-8.775c-0.487,0-0.98,0.035-1.465,0.104c-6.49,0.927-10.998,6.864-10.487,13.81
			c0.5,6.805,4.414,10.468,8.198,14.01c2.516,2.354,4.893,4.578,6.371,7.687c0.132,0.276,0.429,0.442,0.725,0.417
			c0.305-0.025,0.562-0.236,0.646-0.531c0.853-2.986,0.481-5.711-1.07-8.062c1.725,0.766,3.539,1.47,5.376,2.182
			c7.638,2.964,15.536,6.028,18.565,13.869c0.113,0.291,0.391,0.471,0.686,0.471c0.088,0,0.178-0.017,0.265-0.051
			c0.378-0.146,0.567-0.571,0.42-0.95C52.821,88.348,44.615,85.164,36.679,82.085L36.679,82.085z M76.734,24.102
			c-0.507,0-0.918-0.412-0.918-0.919c0-0.507,0.411-0.919,0.918-0.919c0.508,0,0.92,0.412,0.92,0.919
			C77.654,23.689,77.242,24.102,76.734,24.102L76.734,24.102z M80.228,26.307c-0.608,0-1.103-0.494-1.103-1.103
			c0-0.609,0.494-1.103,1.103-1.103s1.103,0.494,1.103,1.103C81.33,25.813,80.836,26.307,80.228,26.307L80.228,26.307z
			 M95.301,35.866c0,0.812-0.658,1.471-1.471,1.471c-0.812,0-1.471-0.659-1.471-1.471s0.659-1.471,1.471-1.471
			C94.643,34.396,95.301,35.054,95.301,35.866L95.301,35.866z M84.639,28.513c-0.812,0-1.47-0.658-1.47-1.471
			c0-0.812,0.658-1.47,1.47-1.47c0.812,0,1.471,0.659,1.471,1.47C86.109,27.855,85.451,28.513,84.639,28.513L84.639,28.513z
			 M91.234,13c1.569,2.459,3.655,4.412,5.686,6.311c3.743,3.502,7.277,6.811,7.736,13.042c0.453,6.165-3.514,11.43-9.229,12.247
			c-0.416,0.059-0.84,0.089-1.258,0.089c-4.367,0-8.128-3.263-8.747-7.591c-0.562-3.942,2.187-7.608,6.128-8.172
			c0.353-0.05,0.707-0.075,1.059-0.075c1.539,0,3.023,0.473,4.115,1.337c0.87,0.688,1.455,1.595,1.729,2.653
			c0.069,0.396,0.122,0.809,0.157,1.244c0.004,0.042,0.012,0.081,0.021,0.119c0.094,3.641-2.654,5.092-4.188,5.348
			c-1.052,0.175-2.46-0.178-3.344-0.841c-0.868-0.649-1.429-1.598-1.583-2.67c-0.128-0.897,0.101-1.79,0.644-2.515
			c0.543-0.725,1.335-1.195,2.231-1.324c0.838-0.119,1.678,0.135,2.309,0.697c0.289,0.257,0.73,0.246,1.006-0.028
			c0.275-0.273,0.292-0.713,0.036-1.006c-0.915-1.047-2.3-1.4-3.302-1.51c-1.701-0.19-3.32,0.371-4.548,1.579
			c-1.288,1.268-1.954,3.108-1.78,4.92c0.186,1.944,1.312,3.817,3.092,5.141c1.875,1.393,4.207,1.983,6.24,1.576
			c5.079-1.016,8.334-5.699,7.741-11.137c-0.606-5.564-3.526-8.931-7.507-11.412C92.463,18.851,90.975,16.16,91.234,13L91.234,13z
			 M85.345,17.916c3.451,1.339,6.706,2.602,9.397,4.249c0.174,0.119,0.35,0.236,0.531,0.352c0.039,0.024,0.078,0.044,0.119,0.061
			c3.421,2.257,5.812,5.245,6.332,10.018c0.508,4.662-2.254,8.672-6.568,9.536c-1.629,0.326-3.527-0.166-5.074-1.314
			c-1.445-1.076-2.359-2.569-2.505-4.1c-0.108-1.137,0.216-2.287,0.882-3.194c-0.392,0.844-0.531,1.785-0.396,2.728
			c0.208,1.461,0.975,2.754,2.155,3.639c1.195,0.896,3.033,1.355,4.468,1.114c1.425-0.238,2.806-1.005,3.788-2.106
			c0.863-0.967,1.843-2.672,1.603-5.304c-0.032-0.359-0.098-0.705-0.181-1.042c-1.282-7.169-7.634-8.908-13.792-10.592
			c-5.064-1.384-10.299-2.816-13.365-7.109c-0.237-0.331-0.697-0.407-1.026-0.171c-0.331,0.237-0.407,0.696-0.171,1.026
			c3.371,4.719,8.863,6.221,14.175,7.673c4.254,1.163,8.132,2.227,10.512,4.792c-1.455-0.682-3.187-0.942-4.886-0.699
			c-3.625,0.519-6.411,3.221-7.221,6.583c-1.641-2.969-3.758-4.476-5.676-5.836c-2.244-1.589-4.182-2.961-4.848-6.46
			c-0.076-0.399-0.461-0.659-0.86-0.585c-0.399,0.076-0.661,0.461-0.585,0.86c0.777,4.082,3.043,5.687,5.443,7.386
			c2.385,1.688,4.849,3.437,6.386,7.97c0.757,5.006,5.122,8.771,10.188,8.771c0.488,0,0.98-0.035,1.466-0.104
			c6.489-0.927,10.997-6.864,10.487-13.81c-0.502-6.804-4.414-10.466-8.199-14.008c-2.516-2.354-4.893-4.579-6.371-7.687
			c-0.131-0.276-0.429-0.444-0.725-0.417c-0.305,0.025-0.562,0.236-0.646,0.531c-0.853,2.987-0.48,5.711,1.07,8.063
			c-1.725-0.766-3.539-1.47-5.376-2.183c-7.638-2.963-15.536-6.027-18.565-13.868c-0.146-0.379-0.572-0.567-0.951-0.421
			c-0.378,0.146-0.566,0.572-0.42,0.951C69.201,11.653,77.408,14.837,85.345,17.916L85.345,17.916z M105.059,53.309
			c-0.406,0-0.734-0.329-0.734-0.734c0-0.406,0.328-0.736,0.734-0.736s0.735,0.33,0.735,0.736
			C105.794,52.979,105.465,53.309,105.059,53.309L105.059,53.309z M105.059,46.691c0.406,0,0.735,0.33,0.735,0.735
			c0,0.406-0.329,0.735-0.735,0.735s-0.734-0.329-0.734-0.735C104.324,47.021,104.652,46.691,105.059,46.691L105.059,46.691z
			 M16.824,51.838c0.406,0,0.735,0.33,0.735,0.736c0,0.405-0.329,0.734-0.735,0.734c-0.406,0-0.735-0.329-0.735-0.734
			C16.088,52.168,16.417,51.838,16.824,51.838L16.824,51.838z M16.824,48.162c-0.406,0-0.735-0.329-0.735-0.735
			c0-0.405,0.329-0.735,0.735-0.735c0.406,0,0.735,0.33,0.735,0.735C17.559,47.833,17.229,48.162,16.824,48.162L16.824,48.162z
			 M41.824,24.102c0.608,0,1.103,0.494,1.103,1.103c0,0.608-0.495,1.103-1.103,1.103c-0.609,0-1.103-0.494-1.103-1.103
			C40.721,24.596,41.215,24.102,41.824,24.102L41.824,24.102z M26.75,35.866c0-0.812,0.659-1.471,1.471-1.471
			s1.471,0.659,1.471,1.471s-0.659,1.471-1.471,1.471S26.75,36.678,26.75,35.866L26.75,35.866z M37.412,25.572
			c0.812,0,1.471,0.659,1.471,1.47c0,0.812-0.658,1.471-1.471,1.471c-0.812,0-1.47-0.658-1.47-1.471
			C35.941,26.231,36.6,25.572,37.412,25.572L37.412,25.572z M17.395,32.354c0.458-6.232,3.994-9.54,7.737-13.043
			c2.03-1.899,4.116-3.852,5.684-6.311c0.261,3.158-1.227,5.848-4.44,8.021c-3.983,2.481-6.906,5.848-7.512,11.415
			c-0.593,5.438,2.663,10.121,7.742,11.137c2.034,0.408,4.366-0.182,6.24-1.576c1.78-1.323,2.906-3.196,3.092-5.141
			c0.173-1.813-0.493-3.652-1.781-4.92c-1.227-1.208-2.84-1.768-4.547-1.579c-1.002,0.111-2.389,0.463-3.303,1.511
			c-0.255,0.292-0.24,0.732,0.036,1.006c0.276,0.274,0.716,0.286,1.006,0.028c0.632-0.562,1.473-0.816,2.306-0.697
			c0.898,0.129,1.691,0.599,2.234,1.324c0.543,0.725,0.771,1.618,0.644,2.515c-0.153,1.072-0.715,2.02-1.582,2.669
			c-0.884,0.663-2.291,1.017-3.344,0.841c-1.535-0.256-4.283-1.707-4.189-5.347c0.01-0.039,0.018-0.079,0.022-0.12
			c0.034-0.435,0.087-0.848,0.157-1.244c0.275-1.058,0.859-1.965,1.729-2.653c1.342-1.061,3.277-1.531,5.173-1.262
			c3.941,0.564,6.69,4.23,6.127,8.171c-0.618,4.328-4.379,7.591-8.747,7.591c-0.418,0-0.841-0.03-1.257-0.089
			C20.909,43.783,16.941,38.519,17.395,32.354L17.395,32.354z M26.416,46.056c0.484,0.069,0.978,0.104,1.465,0.104
			c5.068,0,9.433-3.767,10.189-8.774c1.459-4.552,3.947-6.299,6.354-7.988c2.417-1.696,4.701-3.298,5.476-7.365
			c0.076-0.399-0.186-0.784-0.584-0.86c-0.399-0.074-0.784,0.186-0.86,0.585c-0.663,3.48-2.615,4.85-4.876,6.436
			c-1.929,1.353-4.054,2.854-5.663,5.803c-0.827-3.336-3.602-6.01-7.207-6.526c-1.697-0.244-3.429,0.017-4.884,0.7
			c2.379-2.566,6.258-3.63,10.512-4.793c5.312-1.452,10.804-2.954,14.175-7.673c0.236-0.33,0.16-0.789-0.171-1.026
			c-0.33-0.235-0.79-0.159-1.026,0.171c-3.066,4.293-8.302,5.725-13.366,7.109c-6.157,1.684-12.51,3.422-13.792,10.591
			c-0.083,0.338-0.149,0.684-0.182,1.043c-0.24,2.632,0.739,4.337,1.603,5.304c0.983,1.101,2.364,1.868,3.788,2.106
			c1.436,0.24,3.272-0.219,4.467-1.114c1.182-0.885,1.947-2.178,2.156-3.639c0.135-0.944-0.005-1.885-0.398-2.73
			c0.667,0.908,0.993,2.058,0.884,3.197c-0.146,1.53-1.059,3.023-2.506,4.099c-1.546,1.149-3.443,1.642-5.074,1.314
			c-4.314-0.863-7.077-4.873-6.569-9.536c0.521-4.772,2.91-7.761,6.332-10.017c0.041-0.017,0.082-0.037,0.12-0.062
			c0.183-0.117,0.361-0.234,0.535-0.354c2.691-1.646,5.945-2.909,9.395-4.247c7.936-3.079,16.143-6.263,19.406-14.709
			c0.146-0.378-0.042-0.804-0.421-0.951c-0.377-0.146-0.805,0.042-0.951,0.421c-3.029,7.841-10.928,10.905-18.566,13.868
			c-1.838,0.713-3.652,1.417-5.376,2.183c1.55-2.353,1.923-5.077,1.07-8.063c-0.084-0.294-0.341-0.505-0.646-0.531
			c-0.303-0.028-0.593,0.141-0.725,0.417c-1.478,3.108-3.854,5.332-6.372,7.687c-3.784,3.542-7.697,7.204-8.197,14.009
			C15.417,39.191,19.925,45.128,26.416,46.056L26.416,46.056z M56.162,55.559h1.471v7.353h-1.471V55.559z M65.721,48.205H64.25
			V37.219h1.471V48.205z M68.662,52.984H53.221v-2.205h15.441V52.984z M68.662,49.308h-11.03V37.219h-1.471v12.089h-2.941V37.219
			H51.75v13.192v1.471v1.47v1.471v8.089h1.471v-8.456H64.25v8.456h1.471v-8.456h2.941v8.456h1.471V37.219h-1.471V49.308z"/>
	</g>
</g>
</svg>
