<?xml version="1.0" encoding="UTF-8"?>
<svg width="28px" height="28px" viewBox="0 0 28 28" version="1.1" xmlns="http://www.w3.org/2000/svg" xmlns:xlink="http://www.w3.org/1999/xlink">
    <!-- Generator: Sketch 43.2 (39069) - http://www.bohemiancoding.com/sketch -->
    <title>social--instagram</title>
    <desc>Created with Sketch.</desc>
    <defs></defs>
    <g id="Symbols" stroke="none" stroke-width="1" fill="none" fill-rule="evenodd">
        <g id="social--instagram" fill="#E8E6E6">
            <path d="M14,0 C21.7318182,0 28,6.26818182 28,14 C28,21.7318182 21.7318182,28 14,28 C6.26818182,28 0,21.7318182 0,14 C0,6.26818182 6.26818182,0 14,0 Z M14,27 C21.1799,27 27,21.1799 27,14 C27,6.82075 21.1799,1 14,1 C6.8201,1 1,6.82075 1,14 C1,21.1799 6.8201,27 14,27 Z M8,10.997152 C8,9.34187067 9.34162278,8 10.997152,8 L17.002848,8 C18.6581293,8 20,9.34162278 20,10.997152 L20,17.002848 C20,18.6581293 18.6583772,20 17.002848,20 L10.997152,20 C9.34187067,20 8,18.6583772 8,17.002848 L8,10.997152 Z M14,17 C15.6568542,17 17,15.6568542 17,14 C17,12.3431458 15.6568542,11 14,11 C12.3431458,11 11,12.3431458 11,14 C11,15.6568542 12.3431458,17 14,17 Z M14,16 C12.8954305,16 12,15.1045695 12,14 C12,12.8954305 12.8954305,12 14,12 C15.1045695,12 16,12.8954305 16,14 C16,15.1045695 15.1045695,16 14,16 Z M17.5,11 C17.7761424,11 18,10.7761424 18,10.5 C18,10.2238576 17.7761424,10 17.5,10 C17.2238576,10 17,10.2238576 17,10.5 C17,10.7761424 17.2238576,11 17.5,11 Z" id="Combined-Shape"></path>
        </g>
    </g>
</svg>