<?xml version="1.0" encoding="UTF-8"?>
<svg width="28px" height="28px" viewBox="0 0 28 28" version="1.1" xmlns="http://www.w3.org/2000/svg" xmlns:xlink="http://www.w3.org/1999/xlink">
    <!-- Generator: Sketch 43.2 (39069) - http://www.bohemiancoding.com/sketch -->
    <title>buttons / Buttons / social-twitter</title>
    <desc>Created with Sketch.</desc>
    <defs></defs>
    <g id="Home" stroke="none" stroke-width="1" fill="none" fill-rule="evenodd">
        <g id="navigation--mobile--ALT" transform="translate(-261.000000, -432.000000)" fill="#A5A2A0">
            <g id="categories-expanded" transform="translate(15.000000, 15.000000)">
                <g id="buttons-/-social-twitter" transform="translate(246.000000, 417.000000)">
                    <path d="M20.64055,9.20285053 C20.1251,9.52122273 19.5544,9.75226605 18.9473,9.87672689 C18.4611,9.33693818 17.76755,9 17.00055,9 C15.52765,9 14.3336,10.2439207 14.3336,11.7766456 C14.3336,11.994624 14.35635,12.2057261 14.4025,12.4099519 C12.186,12.2937426 10.2204,11.1880353 8.90545,9.50747015 C8.67535,9.91867225 8.54405,10.3951991 8.54405,10.9040445 C8.54405,11.8674126 9.014,12.717322 9.7303,13.215853 C9.2935,13.2007251 8.88205,13.0762643 8.5226,12.8679127 C8.52195,12.8802901 8.52195,12.8906045 8.52195,12.9029818 C8.52195,14.2486716 9.4417,15.3715697 10.66175,15.62668 C10.4375,15.6899419 10.20285,15.7229481 9.9591,15.7229481 C9.7875,15.7229481 9.6198,15.7057573 9.4573,15.6734388 C9.7966,16.7777708 10.78135,17.5795462 11.9481,17.6022379 C11.0355,18.3476277 9.88565,18.7904607 8.63635,18.7904607 C8.4199,18.7904607 8.20865,18.778771 8,18.7533287 C9.1804,19.5399762 10.58245,20 12.0885,20 C16.9947,20 19.67725,15.7690192 19.67725,12.098456 C19.67725,11.9781209 19.67465,11.8584735 19.66945,11.7395137 C20.1901,11.3475652 20.64185,10.858661 21,10.3030568 C20.5216,10.5230981 20.0081,10.6723136 19.4686,10.7390136 C20.0185,10.3951991 20.44165,9.85128462 20.64055,9.20285053 M14,0 C6.26818182,0 0,6.26818182 0,14 C0,21.7318182 6.26818182,28 14,28 C21.7318182,28 28,21.7318182 28,14 C28,6.26818182 21.7318182,0 14,0 M14,27 C6.8201,27 1,21.1799 1,14 C1,6.82075 6.8201,1 14,1 C21.1799,1 27,6.82075 27,14 C27,21.1799 21.1799,27 14,27" id="twitterbird"></path>
                </g>
            </g>
        </g>
    </g>
</svg>